<svg width="250" height="250" viewBox="0 0 250 250" fill="none" xmlns="http://www.w3.org/2000/svg">
<path d="M154.044 5C162.431 5 169.274 7.09513 173.998 11.8115C178.723 16.529 180.823 23.3633 180.823 31.7402C180.823 41.321 178.633 51.0043 174.323 60.7676L174.315 60.7852C170.068 70.2453 164.842 79.2921 158.643 87.9238C153.709 94.7938 148.924 101.098 144.289 106.837C150.262 108.352 154.943 111.6 158.036 116.728C161.01 121.535 162.703 126.93 163.167 132.853C166.014 131.8 168.901 130.934 171.828 130.258C176.224 129.082 180.707 128.495 185.27 128.495C189.649 128.495 193.397 130.22 196.34 133.514L196.621 133.818C199.49 136.99 201 140.726 201 144.924C201 146.111 200.604 147.463 200.125 148.753C199.624 150.398 198.475 152.204 196.186 152.661L194.711 152.956L193.593 151.951C191.558 150.123 190.211 147.865 189.968 145.195C189.853 143.932 189.468 142.957 188.876 142.169L188.826 142.103L188.787 142.044C188.81 142.074 188.661 141.854 187.892 141.623C187.077 141.379 185.836 141.209 184.068 141.209C180.217 141.209 176.35 141.8 172.459 142.995L172.423 143.007L172.386 143.017C169.037 143.953 165.744 145.122 162.507 146.525C161.699 150.971 160.11 156.168 157.799 162.082C155.348 168.761 152.177 175.815 148.296 183.241C144.406 190.685 140.032 198.042 135.178 205.313C130.3 212.78 125.085 219.535 119.53 225.574L119.531 225.575C114.106 231.647 108.543 236.553 102.829 240.244C97.0274 243.992 91.1847 246 85.3477 246C81.9159 246 78.899 244.858 76.6445 242.382L76.5918 242.324L76.542 242.264C74.5798 239.869 73.7013 236.918 73.7012 233.648C73.7012 229.206 75.1668 223.963 77.8037 218.04L77.8096 218.025L77.8164 218.011C80.4429 212.275 83.7129 206.321 87.6162 200.151C91.4808 194.043 95.2697 188.329 98.9814 183.013L98.9941 182.994L99.0068 182.977C102.702 177.844 105.774 173.727 108.216 170.64C113.213 164.321 119.579 158.307 127.273 152.587L127.286 152.578L127.298 152.569C134.496 147.33 141.381 142.965 147.953 139.489C147.932 136.633 147.555 133.645 146.804 130.518L146.798 130.492C145.927 126.724 144.423 123.542 142.323 120.887C140.799 118.959 138.687 117.736 135.722 117.35C134.179 119.289 131.981 121.877 129.152 125.086L129.133 125.108L129.111 125.131C125.555 129.004 121.601 133.113 117.252 137.455C113.008 141.692 108.823 145.381 104.695 148.513L104.688 148.519L104.681 148.523C100.71 151.496 96.845 153.438 93.2744 153.438C91.3801 153.438 89.2768 152.809 88.0605 150.785L88.002 150.687L87.9502 150.583C87.2519 149.189 86.9121 147.687 86.9121 146.122C86.9122 141.497 88.6559 136.979 91.8018 132.617C94.853 128.227 98.6424 124.205 103.144 120.542C107.772 116.747 112.509 113.588 117.358 111.084C121.705 108.697 125.745 107.093 129.443 106.407C133.007 102.337 136.873 97.411 141.04 91.6162L141.048 91.6045C145.621 85.3074 149.964 78.5288 154.075 71.2666C158.167 64.0392 161.457 56.9964 163.956 50.1367L163.962 50.1191L163.969 50.1016C166.599 43.1502 167.857 36.9615 167.857 31.5C167.857 26.6427 166.594 23.5418 164.582 21.6191C162.544 19.6721 159.219 18.4336 154.044 18.4336C147.356 18.4336 139.885 19.6486 131.61 22.1426L131.593 22.1484L131.575 22.1533C123.471 24.4872 115.341 27.8394 107.186 32.2236C99.0553 36.5942 91.6388 41.7399 84.9307 47.6582C78.2629 53.5409 72.9538 59.9279 68.9688 66.8135C65.0587 73.5696 63.1279 80.6478 63.1279 88.0918C63.1279 91.0777 63.8618 93.1065 65.0225 94.5C66.0412 95.5805 67.7458 96.3623 70.6963 96.3623C74.3707 96.3623 77.908 95.5216 81.3408 93.8125C85.1808 91.8177 88.6115 89.6074 91.6426 87.1865C94.9818 84.4879 97.8494 82.1812 100.245 80.2676C101.486 79.1967 102.627 78.317 103.647 77.6865C104.557 77.1247 105.832 76.459 107.206 76.459L107.578 76.4668C108.473 76.5039 109.543 76.6915 110.489 77.3213C111.786 78.1846 112.367 79.5428 112.367 80.8984C112.367 82.649 111.524 84.2259 110.576 85.5029C109.585 86.8386 108.195 88.2261 106.505 89.6602C103.148 92.5088 99.0861 95.3149 94.3486 98.0898L94.3496 98.0908C89.7406 100.885 85.0395 103.273 80.248 105.252L80.207 105.27L80.165 105.285C75.3909 107.093 71.2299 108.117 67.8135 108.117C62.23 108.117 57.3955 106.48 53.5586 103.032L53.5 102.979L53.4443 102.924C49.7513 99.2369 48.0001 94.4318 48 88.8115C48 79.4828 50.3853 70.5868 55.1094 62.165L55.1191 62.1475C59.9355 53.6915 66.2329 46.0072 73.9834 39.0928C81.6871 32.2201 90.2048 26.2532 99.5293 21.1904C108.82 15.9865 118.139 11.9845 127.487 9.20117L127.501 9.19727C137.001 6.41745 145.855 5.00002 154.044 5ZM145.872 155.873C142.156 158.438 138.395 161.309 134.592 164.49C128.802 169.333 123.908 174.303 119.89 179.395L119.883 179.403L119.875 179.412C117.979 181.778 115.202 185.341 111.538 190.112C108.036 195.04 104.374 200.286 100.552 205.852C96.775 211.509 93.5608 216.832 90.9033 221.821C88.4065 226.973 87.3877 230.605 87.3877 232.929C87.3877 233.551 87.4883 233.824 87.5312 233.913C87.6135 233.947 87.8163 234.005 88.2305 234.005C89.9941 234.005 92.3043 233.279 95.2441 231.371L95.2725 231.354L95.2998 231.336C98.4898 229.364 101.452 227.09 104.188 224.511L104.249 224.452L104.314 224.397C107.332 221.86 109.579 219.846 111.091 218.336C116.332 213.103 121.477 206.427 126.51 198.263L126.527 198.233L126.546 198.205C131.738 190.195 136.222 181.792 139.998 172.995C142.612 166.906 144.563 161.2 145.872 155.873Z" fill="#CD5C5C" stroke="#CD5C5C" stroke-width="6"/>
</svg>
