<svg width="604" height="204" viewBox="0 0 604 204" fill="none" xmlns="http://www.w3.org/2000/svg">
<rect x="1" y="1" width="602" height="202" rx="26" fill="#232323"/>
<rect x="1" y="1" width="602" height="202" rx="26" stroke="#3D3D3D" stroke-width="2" stroke-linejoin="round"/>
<path d="M176.192 78.5938C178.979 77.1954 185.278 76.491 204.685 72.1277C209.772 70.984 212.283 70.8871 214.039 70.8819C220.031 70.8639 198.002 85.554 193.018 90.6743C191.758 91.9683 211.442 88.7818 237.353 85.1019C247.962 83.5952 253.547 83.8507 256.408 85.0651C259.268 86.2795 259.268 88.7082 258.227 91.3471C255.933 97.1617 251.57 102.05 248.426 106.945C245.064 112.177 235.155 120.933 220.817 133.177C207.879 144.224 192.744 152.149 178.921 159.151C168.658 164.35 160.45 166.196 152.941 168.645C143.348 171.775 133.119 171.116 127.156 170.422C125.242 170.199 126.052 168.34 127.104 166.758C129.383 163.329 133.403 159.225 152.179 145.483C168.221 133.742 198.717 114.047 225.549 94.8325C252.38 75.6184 274.937 57.9235 288.292 47.7671C301.647 37.6106 305.118 35.5289 308.467 33.936C311.816 32.3432 314.94 31.3023 308.22 43.777C301.5 56.2518 284.843 82.2737 275.568 96.1993C266.293 110.125 264.905 111.166 264.884 111.182C259.744 115.036 276.073 100 281.331 95.2583C286.594 90.5113 289.754 88.0668 291.331 87.7041C298.491 86.0576 288.376 106.897 289.049 117.295C289.618 126.082 308.272 114.026 330.172 99.6742C342.405 91.6572 357.024 86.311 363.182 85.0809C364.406 84.8363 365.458 84.9021 365.995 86.29C367.508 90.2057 367.225 94.3541 369.144 96.1047C371.466 98.2228 379.791 97.5188 391.853 96.6514C416.783 94.8586 430.3 89.1077 436.777 88.235C450.995 88.4033 462.836 89.1077 474.114 86.8419C475.886 85.964 476.927 84.9232 478 82.7994" stroke="white" stroke-width="7" stroke-linecap="round"/>
</svg>
