<svg width="250" height="250" viewBox="0 0 250 250" fill="none" xmlns="http://www.w3.org/2000/svg">
<rect width="250" height="250" fill="white"/>
<path d="M145.098 43C150.798 43 155.44 44.4253 158.644 47.626C161.847 50.8271 163.274 55.4667 163.274 61.1631C163.274 67.6793 161.786 74.2665 158.856 80.9092L158.851 80.9209C155.962 87.3591 152.409 93.5161 148.193 99.3906C144.822 104.089 141.551 108.397 138.386 112.317C142.481 113.341 145.684 115.561 147.793 119.072H147.792C149.813 122.349 150.96 126.027 151.268 130.067C153.213 129.345 155.186 128.749 157.188 128.285C160.181 127.482 163.233 127.082 166.34 127.082C169.308 127.082 171.847 128.252 173.841 130.485C175.91 132.682 177 135.287 177 138.225C177 139.028 176.73 139.948 176.402 140.829C176.062 141.937 175.29 143.145 173.758 143.451L172.774 143.647L172.028 142.977C170.651 141.737 169.741 140.209 169.577 138.405C169.498 137.538 169.233 136.867 168.825 136.323L168.792 136.278L168.761 136.232C168.786 136.271 168.701 136.106 168.135 135.937C167.575 135.769 166.727 135.653 165.522 135.653C162.899 135.653 160.265 136.056 157.614 136.871L157.565 136.885C155.279 137.525 153.029 138.324 150.818 139.284C150.272 142.302 149.196 145.831 147.629 149.85L147.63 149.851C145.961 154.408 143.8 159.223 141.152 164.293C138.504 169.366 135.526 174.38 132.22 179.335L132.219 179.334C128.899 184.418 125.351 189.018 121.57 193.129C117.888 197.251 114.113 200.582 110.236 203.088C106.294 205.636 102.328 207 98.3662 207C96.0407 207 93.9993 206.226 92.4746 204.55L92.4395 204.512L92.4072 204.472C91.0796 202.85 90.4834 200.851 90.4834 198.633C90.4834 195.617 91.4778 192.054 93.2705 188.023L93.2754 188.015L93.2793 188.005C95.0651 184.102 97.2888 180.049 99.9434 175.85C102.572 171.691 105.149 167.802 107.674 164.183L107.682 164.171L107.69 164.158C110.204 160.664 112.293 157.861 113.953 155.76C117.35 151.461 121.679 147.37 126.911 143.478L126.919 143.471L126.927 143.465C131.83 139.892 136.52 136.918 140.995 134.551C140.983 132.595 140.726 130.548 140.212 128.406L140.208 128.389C139.614 125.817 138.589 123.645 137.156 121.832C136.108 120.505 134.654 119.666 132.616 119.405C131.567 120.727 130.068 122.495 128.135 124.689L128.121 124.704L128.107 124.72C125.688 127.356 122.999 130.153 120.041 133.108C117.155 135.992 114.31 138.503 111.504 140.634L111.493 140.642C108.794 142.664 106.173 143.979 103.758 143.979C102.477 143.979 101.063 143.554 100.246 142.193L100.207 142.127L100.172 142.059C99.7 141.116 99.4707 140.1 99.4707 139.041C99.4707 135.914 100.645 132.857 102.768 129.901C104.846 126.902 107.43 124.155 110.502 121.653C113.632 119.085 116.835 116.947 120.113 115.248C123.089 113.608 125.852 112.509 128.378 112.041C130.807 109.266 133.444 105.908 136.284 101.955L136.29 101.948C139.402 97.6595 142.357 93.0424 145.154 88.0967C147.939 83.1742 150.178 78.377 151.879 73.7041L151.883 73.6924L151.888 73.6807C153.678 68.9443 154.536 64.7252 154.536 61C154.536 57.6853 153.674 55.5609 152.294 54.2412C150.897 52.9057 148.624 52.0615 145.098 52.0615C140.543 52.0616 135.458 52.8891 129.826 54.5879L129.803 54.5957C124.287 56.1856 118.753 58.4687 113.202 61.4551C107.669 64.4322 102.621 67.9372 98.0557 71.9688C93.5167 75.9767 89.9019 80.329 87.1885 85.0215C84.525 89.6276 83.209 94.454 83.209 99.5303C83.209 101.569 83.71 102.962 84.5068 103.92C85.2096 104.668 86.3817 105.204 88.3984 105.204C90.9 105.204 93.3086 104.632 95.6455 103.47C98.2646 102.109 100.605 100.601 102.673 98.9482C104.958 97.0995 106.919 95.5205 108.555 94.2129C109.387 93.4954 110.151 92.9053 110.835 92.4824C111.452 92.1005 112.312 91.6533 113.235 91.6533L113.487 91.6582C114.092 91.6833 114.812 91.8102 115.447 92.2334C116.317 92.8126 116.706 93.723 116.706 94.6328C116.706 95.8108 116.138 96.8753 115.495 97.7422C114.824 98.6479 113.881 99.5901 112.732 100.565C110.451 102.503 107.689 104.412 104.468 106.301L104.469 106.302C101.335 108.203 98.1393 109.828 94.8818 111.175L94.8545 111.187L94.8262 111.196C91.5802 112.427 88.7546 113.122 86.4375 113.122C82.6474 113.122 79.3689 112.01 76.7676 109.671L76.7285 109.636L76.6914 109.599C74.1882 107.097 73 103.837 73 100.021C73 93.677 74.6199 87.6272 77.8301 81.8994L77.8369 81.8887L78.4629 80.8154C81.6501 75.4837 85.7212 70.613 90.6611 66.2021C95.8994 61.525 101.692 57.4642 108.032 54.0186C114.35 50.4767 120.687 47.7525 127.043 45.8584L127.053 45.8564C133.512 43.9647 139.532 43 145.098 43ZM139.604 145.584C137.046 147.346 134.458 149.321 131.84 151.513C127.9 154.811 124.568 158.198 121.832 161.667L121.822 161.679C120.532 163.29 118.643 165.715 116.151 168.963C113.768 172.319 111.276 175.892 108.675 179.683C106.105 183.536 103.918 187.161 102.109 190.56C100.41 194.069 99.713 196.55 99.7129 198.143C99.7129 198.598 99.7898 198.788 99.8193 198.844C99.8677 198.868 100.009 198.918 100.327 198.918C101.537 198.918 103.117 198.419 105.12 197.118L105.157 197.095C107.33 195.751 109.346 194.201 111.209 192.443L111.25 192.404L111.294 192.367C113.347 190.64 114.876 189.267 115.906 188.238C119.475 184.673 122.977 180.124 126.401 174.563L126.413 174.544L126.426 174.525C129.959 169.07 133.01 163.346 135.58 157.354C137.376 153.166 138.712 149.244 139.604 145.584Z" fill="black" stroke="black" stroke-width="4"/>
</svg>
