<svg width="15" height="15" viewBox="0 0 15 15" fill="none" xmlns="http://www.w3.org/2000/svg">
<path d="M11.5623 3.19799C10.7643 2.82599 9.90027 2.55599 9.00027 2.39999C8.99238 2.39974 8.98453 2.40122 8.97727 2.40433C8.97001 2.40744 8.96353 2.4121 8.95827 2.41799C8.85027 2.61599 8.72427 2.87399 8.64027 3.07199C7.68567 2.92799 6.71487 2.92799 5.76027 3.07199C5.67627 2.86799 5.55027 2.61599 5.43627 2.41799C5.43027 2.40599 5.41227 2.39999 5.39427 2.39999C4.49427 2.55599 3.63627 2.82599 2.83227 3.19799C2.82627 3.19799 2.82027 3.20399 2.81427 3.20999C1.18227 5.65199 0.732266 8.02799 0.954266 10.38C0.954266 10.392 0.960266 10.404 0.972266 10.41C2.05227 11.202 3.09027 11.682 4.11627 12C4.13427 12.006 4.15227 12 4.15827 11.988C4.39827 11.658 4.61427 11.31 4.80027 10.944C4.81227 10.92 4.80027 10.896 4.77627 10.89C4.43427 10.758 4.11027 10.602 3.79227 10.422C3.76827 10.41 3.76827 10.374 3.78627 10.356C3.85227 10.308 3.91827 10.254 3.98427 10.206C3.99627 10.194 4.01427 10.194 4.02627 10.2C6.09027 11.142 8.31627 11.142 10.3563 10.2C10.3683 10.194 10.3863 10.194 10.3983 10.206C10.4643 10.26 10.5303 10.308 10.5963 10.362C10.6203 10.38 10.6203 10.416 10.5903 10.428C10.2783 10.614 9.94827 10.764 9.60627 10.896C9.58227 10.902 9.57627 10.932 9.58227 10.95C9.77427 11.316 9.99027 11.664 10.2243 11.994C10.2423 12 10.2603 12.006 10.2783 12C11.3103 11.682 12.3483 11.202 13.4283 10.41C13.4403 10.404 13.4463 10.392 13.4463 10.38C13.7103 7.66199 13.0083 5.30399 11.5863 3.20999C11.5803 3.20399 11.5743 3.19799 11.5623 3.19799ZM5.11227 8.94599C4.49427 8.94599 3.97827 8.37599 3.97827 7.67399C3.97827 6.97199 4.48227 6.40199 5.11227 6.40199C5.74827 6.40199 6.25227 6.97799 6.24627 7.67399C6.24627 8.37599 5.74227 8.94599 5.11227 8.94599ZM9.29427 8.94599C8.67627 8.94599 8.16027 8.37599 8.16027 7.67399C8.16027 6.97199 8.66427 6.40199 9.29427 6.40199C9.93027 6.40199 10.4343 6.97799 10.4283 7.67399C10.4283 8.37599 9.93027 8.94599 9.29427 8.94599Z" fill="black"/>
</svg>
