<svg width="12" height="15" viewBox="0 0 12 15" fill="none" xmlns="http://www.w3.org/2000/svg">
<path d="M10.7143 1.20001H1.28571C0.944722 1.20001 0.617695 1.33547 0.376577 1.57659C0.135459 1.81771 0 2.14473 0 2.48573L0 11.9143C0 12.2553 0.135459 12.5823 0.376577 12.8234C0.617695 13.0646 0.944722 13.2 1.28571 13.2H4.96205V9.12028H3.27455V7.20001H4.96205V5.73644C4.96205 4.07171 5.95313 3.15216 7.47107 3.15216C8.19804 3.15216 8.95821 3.2818 8.95821 3.2818V4.91573H8.12063C7.29536 4.91573 7.03795 5.42787 7.03795 5.95314V7.20001H8.88027L8.58563 9.12028H7.03795V13.2H10.7143C11.0553 13.2 11.3823 13.0646 11.6234 12.8234C11.8645 12.5823 12 12.2553 12 11.9143V2.48573C12 2.14473 11.8645 1.81771 11.6234 1.57659C11.3823 1.33547 11.0553 1.20001 10.7143 1.20001Z" fill="black"/>
</svg>
