<svg width="15" height="15" viewBox="0 0 15 15" fill="none" xmlns="http://www.w3.org/2000/svg">
<path d="M12.5282 1.85941C12.0884 1.41961 11.5592 1.20001 10.94 1.20001H3.4478C2.8286 1.20001 2.2994 1.41961 1.8596 1.85941C1.4198 2.29921 1.2002 2.82841 1.2002 3.44761V10.9398C1.2002 11.559 1.4198 12.0882 1.8596 12.528C2.2994 12.9678 2.8286 13.1874 3.4478 13.1874H5.1962C5.3102 13.1874 5.396 13.1832 5.4536 13.1754C5.52061 13.162 5.5811 13.1262 5.6252 13.074C5.6822 13.014 5.711 12.927 5.711 12.813L5.7068 12.282C5.7044 11.9436 5.7032 11.676 5.7032 11.478L5.5232 11.5092C5.4092 11.5302 5.2652 11.5392 5.0906 11.5368C4.90861 11.5335 4.7272 11.5152 4.5482 11.4822C4.35764 11.447 4.17825 11.3668 4.025 11.2482C3.86449 11.1268 3.74478 10.9594 3.6818 10.7682L3.6038 10.5882C3.53805 10.4462 3.45546 10.3127 3.3578 10.1904C3.2462 10.0446 3.1328 9.94621 3.0182 9.89401L2.9642 9.85501C2.92654 9.82805 2.89229 9.79662 2.8622 9.76141C2.83345 9.72874 2.80979 9.69193 2.792 9.65221C2.7764 9.61561 2.7896 9.58561 2.831 9.56221C2.873 9.53821 2.948 9.52681 3.0578 9.52681L3.2138 9.55081C3.3176 9.57121 3.4466 9.63361 3.5996 9.73741C3.75443 9.84297 3.88377 9.98174 3.9782 10.1436C4.0982 10.3566 4.2422 10.5192 4.4114 10.6314C4.5806 10.743 4.751 10.7994 4.9226 10.7994C5.0942 10.7994 5.2424 10.7862 5.3678 10.7604C5.48906 10.7353 5.6069 10.6959 5.7188 10.6428C5.7656 10.2948 5.8928 10.026 6.101 9.83881C5.83122 9.81236 5.56385 9.76543 5.3012 9.69841C5.04487 9.628 4.79836 9.5258 4.5674 9.39421C4.32574 9.26265 4.1123 9.08488 3.9392 8.87101C3.773 8.66281 3.6362 8.38981 3.5294 8.05201C3.4232 7.71361 3.3698 7.32301 3.3698 6.88081C3.3698 6.25141 3.575 5.71561 3.986 5.27281C3.794 4.80001 3.812 4.26901 4.0406 3.68161C4.1918 3.63421 4.4156 3.66961 4.712 3.78661C5.0084 3.90361 5.2256 4.00381 5.3636 4.08661C5.5016 4.17061 5.612 4.24081 5.6954 4.29781C6.18318 4.16206 6.68727 4.09383 7.1936 4.09501C7.709 4.09501 8.2082 4.16281 8.6924 4.29781L8.9888 4.11061C9.21679 3.97372 9.45727 3.85881 9.707 3.76741C9.983 3.66301 10.193 3.63481 10.3394 3.68161C10.5734 4.26961 10.5938 4.80001 10.4012 5.27341C10.8122 5.71561 11.018 6.25141 11.018 6.88141C11.018 7.32361 10.9646 7.71541 10.8578 8.05561C10.7516 8.39641 10.6136 8.66941 10.4444 8.87521C10.2682 9.08634 10.0539 9.26241 9.8126 9.39421C9.5606 9.53461 9.3158 9.63601 9.0788 9.69841C8.81616 9.76565 8.54879 9.81278 8.279 9.83941C8.549 10.0734 8.6846 10.4424 8.6846 10.947V12.813C8.6846 12.9012 8.6972 12.9726 8.7236 13.0272C8.73573 13.0535 8.75303 13.0771 8.77447 13.0966C8.79591 13.1161 8.82105 13.131 8.8484 13.1406C8.906 13.161 8.9564 13.1742 9.0008 13.179C9.0452 13.185 9.1088 13.1868 9.1916 13.1868H10.94C11.5592 13.1868 12.0884 12.9672 12.5282 12.5274C12.9674 12.0882 13.1876 11.5584 13.1876 10.9392V3.44761C13.1876 2.82841 12.968 2.29921 12.5282 1.85941Z" fill="black"/>
</svg>
