<svg width="12" height="15" viewBox="0 0 12 15" fill="none" xmlns="http://www.w3.org/2000/svg">
<path d="M11.1429 1.20001H0.854464C0.383036 1.20001 0 1.58841 0 2.06519V12.3348C0 12.8116 0.383036 13.2 0.854464 13.2H11.1429C11.6143 13.2 12 12.8116 12 12.3348V2.06519C12 1.58841 11.6143 1.20001 11.1429 1.20001ZM3.62679 11.4857H1.84821V5.75894H3.62946V11.4857H3.62679ZM2.7375 4.9768C2.16696 4.9768 1.70625 4.51341 1.70625 3.94555C1.70625 3.37769 2.16696 2.9143 2.7375 2.9143C3.30536 2.9143 3.76875 3.37769 3.76875 3.94555C3.76875 4.51608 3.30804 4.9768 2.7375 4.9768ZM10.2937 11.4857H8.51518V8.70001C8.51518 8.03573 8.50179 7.18126 7.59107 7.18126C6.66429 7.18126 6.52232 7.90448 6.52232 8.6518V11.4857H4.74375V5.75894H6.45V6.54108H6.47411C6.7125 6.09108 7.29375 5.61698 8.15893 5.61698C9.95893 5.61698 10.2937 6.80358 10.2937 8.34644V11.4857Z" fill="black"/>
</svg>
