<svg width="15" height="15" viewBox="0 0 15 15" fill="none" xmlns="http://www.w3.org/2000/svg">
<path d="M12.5636 8.40001C12.3956 9.24601 11.0996 10.176 9.58156 10.356C8.79556 10.446 8.02156 10.536 7.19956 10.5C5.84956 10.434 4.79956 10.176 4.79956 10.176V10.548C4.99156 11.88 6.13156 11.958 7.21756 12C8.30956 12.03 9.28156 11.724 9.28156 11.724L9.32956 12.714C9.32956 12.714 8.56156 13.122 7.19956 13.2C6.44956 13.242 5.51356 13.182 4.42756 12.9C2.07556 12.27 1.66756 9.75601 1.60756 7.20001L1.60156 5.14201C1.60156 2.53801 3.29956 1.77601 3.29956 1.77601C4.16956 1.38001 5.64556 1.20001 7.18156 1.20001H7.21756C8.75356 1.20001 10.2296 1.38001 11.0996 1.77601C11.0996 1.77601 12.7976 2.53801 12.7976 5.14201C12.7976 5.14201 12.8216 7.06801 12.5636 8.40001ZM10.7996 5.34601C10.7996 4.69801 10.6196 4.20001 10.2896 3.81001C9.95356 3.43201 9.50956 3.23401 8.95156 3.23401C8.31556 3.23401 7.82956 3.48001 7.49956 3.97201L7.19956 4.50001L6.89956 3.97201C6.56356 3.48001 6.08356 3.23401 5.44156 3.23401C4.88956 3.23401 4.44556 3.43201 4.10356 3.81001C3.77356 4.20001 3.59956 4.69801 3.59956 5.34601V8.50201H4.85956V5.43601C4.85956 4.80001 5.12956 4.46401 5.67556 4.46401C6.27556 4.46401 6.57556 4.85401 6.57556 5.62201V7.29601H7.81756V5.62201C7.81756 4.85401 8.11756 4.46401 8.72356 4.46401C9.26356 4.46401 9.53356 4.80001 9.53356 5.43601V8.50201H10.7996V5.34601Z" fill="black"/>
</svg>
