<svg width="12" height="15" viewBox="0 0 12 15" fill="none" xmlns="http://www.w3.org/2000/svg">
<path d="M2.15137 2.01659C1.88512 2.02784 1.54949 2.05877 1.48855 2.07752C1.47262 2.08221 1.47168 2.13659 1.47168 3.05159C1.47168 3.58502 1.47543 4.02284 1.47918 4.02565C1.48387 4.02846 1.54855 4.02002 1.62262 4.00784C2.10074 3.92721 2.71762 3.91877 3.2998 3.9844C4.56356 4.12784 5.73918 4.61909 6.74043 5.41971C7.10137 5.70846 7.50918 6.11721 7.79606 6.47815C8.58543 7.4719 9.07293 8.64659 9.21543 9.90002C9.28106 10.4822 9.27262 11.0991 9.19199 11.5772C9.17981 11.6513 9.17137 11.716 9.17418 11.7206C9.17699 11.7244 9.61574 11.7281 10.1482 11.7281H11.1186L11.1232 11.7066C11.1711 11.4956 11.2029 10.8235 11.1861 10.3763C11.1645 9.80909 11.1139 9.39752 11.0004 8.86034C10.7248 7.54784 10.1314 6.29721 9.29137 5.25471C8.31356 4.04065 7.07512 3.1369 5.62668 2.57909C4.54106 2.16002 3.32887 1.96409 2.15137 2.01659Z" fill="black"/>
<path d="M2.11387 5.84534C1.86168 5.86877 1.53262 5.92127 1.48855 5.94471C1.47262 5.95315 1.47168 5.99627 1.47168 6.78752C1.47168 7.4494 1.47449 7.6219 1.48387 7.6219C1.48949 7.6219 1.54574 7.60502 1.60762 7.58346C1.72949 7.54221 1.87762 7.5094 2.04543 7.48502C2.1898 7.46534 2.58637 7.4569 2.74762 7.47096C3.87918 7.57127 4.87293 8.24252 5.38574 9.25409C5.54137 9.56065 5.63699 9.85127 5.69512 10.1925C5.73074 10.4053 5.74012 10.5525 5.73449 10.8131C5.72699 11.1394 5.69324 11.3663 5.61637 11.5922C5.5948 11.6541 5.57793 11.7103 5.57793 11.716C5.57793 11.7253 5.75043 11.7281 6.4123 11.7281C7.20355 11.7281 7.24668 11.7272 7.25512 11.7113C7.28043 11.6644 7.33762 11.2875 7.35824 11.0316C7.37137 10.8797 7.37137 10.4466 7.35918 10.2985C7.30387 9.6394 7.14074 9.05815 6.84824 8.47502C6.3973 7.57877 5.6173 6.79877 4.72012 6.34877C4.13887 6.05815 3.55855 5.89596 2.90137 5.84065C2.74668 5.82752 2.27418 5.83127 2.11387 5.84534Z" fill="black"/>
<path d="M2.36165 9.62349C1.99509 9.68536 1.68196 9.93849 1.5479 10.2825C1.47384 10.471 1.4579 10.7157 1.50571 10.9172C1.58353 11.2397 1.82259 11.5182 2.13009 11.6429C2.23884 11.6869 2.32228 11.7075 2.43946 11.7179C2.82571 11.7544 3.19978 11.5744 3.41446 11.2491C3.5954 10.9754 3.63946 10.6416 3.53446 10.3294C3.4079 9.95161 3.07321 9.67411 2.67759 9.61974C2.58384 9.60661 2.45165 9.60849 2.36165 9.62349Z" fill="black"/>
</svg>
