<svg width="15" height="15" viewBox="0 0 15 15" fill="none" xmlns="http://www.w3.org/2000/svg">
<path d="M7.2002 1.20001C3.8882 1.20001 1.2002 3.88801 1.2002 7.20001C1.2002 10.512 3.8882 13.2 7.2002 13.2C10.5122 13.2 13.2002 10.512 13.2002 7.20001C13.2002 3.88801 10.5122 1.20001 7.2002 1.20001ZM9.9842 5.28001C9.8942 6.22801 9.5042 8.53201 9.3062 9.59401C9.2222 10.044 9.0542 10.194 8.8982 10.212C8.5502 10.242 8.2862 9.98401 7.9502 9.76201C7.4222 9.41401 7.1222 9.19801 6.6122 8.86201C6.0182 8.47201 6.4022 8.25601 6.7442 7.90801C6.8342 7.81801 8.3702 6.42001 8.4002 6.29401C8.40436 6.27493 8.40381 6.25512 8.39858 6.23629C8.39335 6.21747 8.38361 6.20021 8.3702 6.18601C8.3342 6.15601 8.2862 6.16801 8.2442 6.17401C8.1902 6.18601 7.3502 6.74401 5.7122 7.84801C5.4722 8.01001 5.2562 8.09401 5.0642 8.08801C4.8482 8.08201 4.4402 7.96801 4.1342 7.86601C3.7562 7.74601 3.4622 7.68001 3.4862 7.47001C3.4982 7.36201 3.6482 7.25401 3.9302 7.14001C5.6822 6.37801 6.8462 5.87401 7.4282 5.63401C9.0962 4.93801 9.4382 4.81801 9.6662 4.81801C9.7142 4.81801 9.8282 4.83001 9.9002 4.89001C9.9602 4.93801 9.9782 5.00401 9.9842 5.05201C9.9782 5.08801 9.9902 5.19601 9.9842 5.28001Z" fill="black"/>
</svg>
