<svg width="15" height="15" viewBox="0 0 15 15" fill="none" xmlns="http://www.w3.org/2000/svg">
<path d="M7.2038 11.4072H7.1918C7.1546 11.4072 3.4328 11.4 2.4938 11.145C2.24008 11.0767 2.00877 10.9429 1.82302 10.757C1.63727 10.5711 1.5036 10.3398 1.4354 10.086C1.26655 9.13342 1.18501 8.16741 1.1918 7.2C1.18744 6.23101 1.27118 5.26363 1.442 4.3098C1.51213 4.05562 1.64642 3.82374 1.83197 3.6364C2.01752 3.44907 2.24811 3.31257 2.5016 3.24C3.4148 3 7.034 3 7.1876 3H7.2002C7.238 3 10.9694 3.0072 11.8988 3.2622C12.4142 3.402 12.8168 3.8046 12.956 4.32C13.13 5.2764 13.2122 6.2466 13.2002 7.2186C13.2044 8.18642 13.1205 9.15261 12.9494 10.1052C12.8803 10.3587 12.7461 10.5897 12.5601 10.7752C12.3741 10.9608 12.1428 11.0945 11.8892 11.163C10.9772 11.4048 7.3574 11.4072 7.2038 11.4072ZM6.0038 5.403L6.0008 9.003L9.128 7.203L6.0038 5.403Z" fill="black"/>
</svg>
